HIERARCHY
ROOT Hips
{
	OFFSET -0.001795 -0.223333 0.028219
	CHANNELS 6 Xposition Yposition Zposition Zrotation Yrotation Xrotation 
	JOINT LeftUpLeg
	{
		OFFSET 0.069520 -0.091406 -0.006815
		CHANNELS 3 Zrotation Yrotation Xrotation
		JOINT LeftLeg
		{
			OFFSET 0.034277 -0.375199 -0.004496
			CHANNELS 3 Zrotation Yrotation Xrotation
			JOINT LeftFoot
			{
				OFFSET -0.013596 -0.397961 -0.043693
				CHANNELS 3 Zrotation Yrotation Xrotation
				JOINT LeftToe
				{
					OFFSET 0.026358 -0.055791 0.119288
					CHANNELS 3 Zrotation Yrotation Xrotation
					End Site
					{
						OFFSET 0.000000 0.000000 0.000000
					}
				}
			}
		}
	}
	JOINT RightUpLeg
	{
		OFFSET -0.067670 -0.090522 -0.004320
		CHANNELS 3 Zrotation Yrotation Xrotation
		JOINT RightLeg
		{
			OFFSET -0.038290 -0.382569 -0.008850
			CHANNELS 3 Zrotation Yrotation Xrotation
			JOINT RightFoot
			{
				OFFSET 0.015774 -0.398415 -0.042312
				CHANNELS 3 Zrotation Yrotation Xrotation
				JOINT RightToe
				{
					OFFSET -0.025372 -0.048144 0.123348
					CHANNELS 3 Zrotation Yrotation Xrotation
					End Site
					{
						OFFSET 0.000000 0.000000 0.000000
					}
				}
			}
		}
	}
	JOINT Spine
	{
		OFFSET -0.002533 0.108963 -0.026696
		CHANNELS 3 Zrotation Yrotation Xrotation
		JOINT Spine1
		{
			OFFSET 0.005487 0.135180 0.001092
			CHANNELS 3 Zrotation Yrotation Xrotation
			JOINT Spine2
			{
				OFFSET 0.001457 0.052922 0.025425
				CHANNELS 3 Zrotation Yrotation Xrotation
				JOINT Neck
				{
					OFFSET -0.002778 0.213870 -0.042857
					CHANNELS 3 Zrotation Yrotation Xrotation
					JOINT Head
					{
						OFFSET 0.005152 0.064970 0.051349
						CHANNELS 3 Zrotation Yrotation Xrotation
						End Site
						{
							OFFSET 0.000000 0.000000 0.000000
						}
					}
				}
				JOINT LeftShoulder
				{
					OFFSET 0.078845 0.121749 -0.034090
					CHANNELS 3 Zrotation Yrotation Xrotation
					JOINT LeftArm
					{
						OFFSET 0.090977 0.030469 -0.008868
						CHANNELS 3 Zrotation Yrotation Xrotation
						JOINT LeftForeArm
						{
							OFFSET 0.259612 -0.012772 -0.027456
							CHANNELS 3 Zrotation Yrotation Xrotation
							JOINT LeftHand
							{
								OFFSET 0.249234 0.008986 -0.001171
								CHANNELS 3 Zrotation Yrotation Xrotation
								End Site
								{
									OFFSET 0.000000 0.000000 0.000000
								}
							}
						}
					}
				}
				JOINT RightShoulder
				{
					OFFSET -0.081759 0.118833 -0.038615
					CHANNELS 3 Zrotation Yrotation Xrotation
					JOINT RightArm
					{
						OFFSET -0.096012 0.032551 -0.009143
						CHANNELS 3 Zrotation Yrotation Xrotation
						JOINT RightForeArm
						{
							OFFSET -0.253742 -0.013329 -0.021401
							CHANNELS 3 Zrotation Yrotation Xrotation
							JOINT RightHand
							{
								OFFSET -0.255298 0.007772 -0.005559
								CHANNELS 3 Zrotation Yrotation Xrotation
								End Site
								{
									OFFSET 0.000000 0.000000 0.000000
								}
							}
						}
					}
				}
			}
		}
	}
}
MOTION
Frames: 6
Frame Time: 0.050000
0.000000 0.941886 0.000000 -1.965317 -0.367443 0.541847 0.224045 0.241478 2.736256 0.796133 -0.215475 3.113456 -0.552603 -1.682412 -0.983733 0.000000 0.000000 0.000000 3.094700 0.545795 -4.882242 -0.860691 0.318946 4.782018 3.464733 6.961105 2.824272 0.000000 0.000000 0.000000 4.622655 -0.378059 4.061399 -1.191695 0.580527 -0.669428 -2.023268 2.193274 8.552020 7.467544 -4.460106 -9.173293 0.000000 0.000000 0.000000 -21.251262 -2.354826 -1.305081 -51.085622 -7.504125 -3.166991 -6.838613 -22.840481 2.180775 0.000000 0.000000 0.000000 19.633619 -3.352578 -2.959852 56.692624 6.455442 -2.958405 6.330624 23.475441 2.162039 0.000000 0.000000 0.000000 
-0.002013 0.941473 0.002332 -2.515945 -0.886252 1.021438 1.361938 0.208357 2.844288 0.094326 -0.082476 2.089671 -0.100938 -0.774953 -1.170843 0.000000 0.000000 0.000000 3.385992 0.556866 -4.981692 -0.441348 0.242588 4.432730 4.379658 8.255333 4.106156 0.000000 0.000000 0.000000 5.058991 -0.328054 3.142215 -1.103788 0.522074 0.501947 -2.586419 3.026580 7.920049 7.981985 -4.944613 -8.172032 0.000000 0.000000 0.000000 -20.334365 -2.473487 -1.353003 -52.435843 -7.460475 -3.176752 -5.047662 -23.739146 1.857714 0.000000 0.000000 0.000000 19.491480 -3.757855 -3.022371 57.362407 5.771899 -3.237460 6.045436 25.194332 2.322958 0.000000 0.000000 0.000000 
-0.003753 0.940784 0.004317 -2.239071 -1.213400 1.077824 0.971795 0.218795 2.771493 0.567667 -0.177296 2.972566 0.063077 -0.955174 -2.299109 0.000000 0.000000 0.000000 3.477962 0.532226 -4.803594 -0.866716 0.304737 4.441992 4.137415 8.144128 3.414706 0.000000 0.000000 0.000000 5.342791 -0.328602 3.022076 -1.209976 0.587817 -0.794572 -3.087744 2.951119 9.063322 7.340884 -4.640512 -7.544615 0.000000 0.000000 0.000000 -20.227510 -2.770112 -1.079577 -52.132285 -7.441391 -3.294377 -5.467336 -22.322640 1.849519 0.000000 0.000000 0.000000 20.157069 -3.713424 -3.080325 56.660445 5.833266 -3.314125 6.835790 25.069065 2.475084 0.000000 0.000000 0.000000 
-0.005520 0.940617 0.006270 -2.484483 -1.473921 0.699131 1.373148 0.263315 3.474200 0.476537 -0.156916 2.765472 0.204458 -0.817432 -2.686247 0.000000 0.000000 0.000000 3.646220 0.435014 -4.035287 -0.682288 0.276892 4.398396 4.828311 9.535744 3.773763 0.000000 0.000000 0.000000 5.245106 -0.338861 3.272545 -1.192542 0.573815 -0.201728 -2.877588 3.100624 8.592305 7.511440 -4.792936 -7.332241 0.000000 0.000000 0.000000 -20.527802 -2.219633 -1.437439 -51.891257 -7.185212 -3.336920 -5.716614 -22.741872 1.926660 0.000000 0.000000 0.000000 20.274195 -4.072443 -3.304594 55.991308 5.876243 -3.227613 7.486095 24.984881 2.591833 0.000000 0.000000 0.000000 
-0.006951 0.941061 0.007928 -2.455360 -1.384992 0.595977 1.350888 0.281393 3.687566 0.593650 -0.170020 2.687538 0.421978 -0.166096 -2.354063 0.000000 0.000000 0.000000 3.473528 0.354648 -3.423201 -0.581329 0.223858 3.573188 4.741858 9.329566 3.775277 0.000000 0.000000 0.000000 5.181536 -0.342614 3.365305 -1.103747 0.530638 -0.113532 -2.955421 3.141157 8.437105 7.636139 -4.756952 -7.948030 0.000000 0.000000 0.000000 -20.721125 -2.494918 -1.346577 -51.303425 -7.140447 -3.288224 -6.216227 -22.192105 1.966932 0.000000 0.000000 0.000000 19.920711 -4.189110 -3.309358 56.226021 5.582617 -3.352958 7.492695 24.859773 2.582976 0.000000 0.000000 0.000000 
-0.008086 0.941433 0.009248 -2.466392 -1.118927 0.588785 1.328205 0.306674 4.008860 0.719354 -0.171085 2.280555 0.665104 0.290468 -2.531393 0.000000 0.000000 0.000000 3.690334 0.291424 -2.926820 -0.635709 0.208354 3.087579 5.019145 9.924898 3.895019 0.000000 0.000000 0.000000 4.998610 -0.345801 3.480826 -0.881575 0.432999 -0.701582 -3.053321 3.053627 8.705609 7.673015 -4.858594 -7.589767 0.000000 0.000000 0.000000 -20.838628 -2.447332 -1.394278 -50.995204 -7.024811 -3.334578 -6.437614 -22.214189 2.011479 0.000000 0.000000 0.000000 20.000366 -4.079388 -3.234940 55.722170 5.276512 -3.503311 7.152965 24.854108 2.516015 0.000000 0.000000 0.000000 
